<?xml version="1.0" encoding="utf-8"?>
<!-- Generator: Adobe Illustrator 21.0.0, SVG Export Plug-In . SVG Version: 6.00 Build 0)  -->
<svg version="1.1" id="图层_1" xmlns="http://www.w3.org/2000/svg" xmlns:xlink="http://www.w3.org/1999/xlink" x="0px" y="0px"
	 viewBox="0 0 20 20" style="enable-background:new 0 0 20 20;" xml:space="preserve">
<style type="text/css">
	.st0{clip-path:url(#SVGID_3_);}
	.st1{fill:#026AFF;}
</style>
<g>
	<defs>
		<rect id="SVGID_1_" x="32.5" y="6" width="18" height="20"/>
	</defs>
	<defs>
		<path id="SVGID_2_" d="M40.4,6.3C40.7,6.1,41.1,6,41.5,6c0.4,0,0.8,0.1,1.2,0.3l6.7,3.9c0.7,0.4,1.2,1.2,1.2,2v7.7
			c0,0.8-0.4,1.6-1.2,2l-0.8,0.5c-1.2,0.7-2.8,0.2-3.3-1.2L43,15.4c-0.2-0.6-0.8-1-1.5-1c-0.7,0-1.2,0.4-1.5,1l-2.2,5.8
			c-0.5,1.3-2.1,1.9-3.3,1.2l-0.8-0.5c-0.7-0.4-1.2-1.2-1.2-2v-7.7c0-0.8,0.4-1.6,1.2-2L40.4,6.3L40.4,6.3z M39.9,23.1h3.4
			c0.5,0,0.9,0.3,1,0.7c0.2,0.5,0,1-0.5,1.3l-1.1,0.6c-0.7,0.4-1.6,0.4-2.3,0l-1.1-0.6c-0.5-0.3-0.7-0.8-0.5-1.3
			C39,23.3,39.4,23.1,39.9,23.1L39.9,23.1L39.9,23.1z"/>
	</defs>
	<clipPath id="SVGID_3_">
		<use xlink:href="#SVGID_1_"  style="overflow:visible;"/>
	</clipPath>
	<clipPath id="SVGID_4_" class="st0">
		<use xlink:href="#SVGID_2_"  style="overflow:visible;"/>
	</clipPath>
</g>
<title>Fill 1</title>
<desc>Created with Sketch.</desc>
<g id="科技蓝色">
	<g id="_x38_1.4_x5F_普色_x5F_结构1_x5F_白" transform="translate(-14.000000, -20.000000)">
		<g id="编组-6" transform="translate(12.000000, 20.000000)">
			<path id="Fill-1" class="st1" d="M10.8,0.3C11.2,0.1,11.6,0,12,0s0.8,0.1,1.2,0.3l6.7,3.9c0.7,0.4,1.2,1.2,1.2,2v7.7
				c0,0.8-0.4,1.6-1.2,2L19,16.3c-1.2,0.7-2.8,0.2-3.3-1.2l-2.2-5.8c-0.2-0.6-0.8-1-1.5-1s-1.2,0.4-1.5,1l-2.2,5.8
				C7.8,16.5,6.2,17,5,16.3l-0.8-0.5c-0.7-0.4-1.2-1.2-1.2-2V6.1c0-0.8,0.4-1.6,1.2-2L10.8,0.3z M10.3,17.1h3.4c0.5,0,0.9,0.3,1,0.7
				c0.2,0.5,0,1-0.5,1.3l-1.1,0.6c-0.7,0.4-1.6,0.4-2.3,0l-1.1-0.6c-0.5-0.3-0.7-0.8-0.5-1.3C9.5,17.3,9.9,17.1,10.3,17.1L10.3,17.1
				z"/>
		</g>
	</g>
</g>
</svg>
